{
.appVersion = "1057";
copyright = "Copyright 2017 Google Inc. All Rights Reserved.";
customParameters = (
{
name = glyphOrder;
value = (
.notdef,
NULL,
CR,
space,
uni00A0,
uni1735,
uni1736,
uni1760,
uni1761,
uni1762,
uni1763,
uni1764,
uni1765,
uni1766,
uni1767,
uni1768,
uni1769,
uni176A,
uni176B,
uni176C,
uni176E,
uni176F,
uni1770,
uni1772,
uni1773,
uni200B,
uni200C,
uni200D,
uni25CC
);
},
{
name = description;
value = "Designed by Monotype design team.";
},
{
name = license;
value = "This Font Software is licensed under the SIL Open Font License, Version 1.1. This Font Software is distributed on an \"AS IS\" BASIS, WITHOUT WARRANTIES OR CONDITIONS OF ANY KIND, either express or implied. See the SIL Open Font License for the specific language, permissions and limitations governing your use of this Font Software.";
},
{
name = licenseURL;
value = "http://scripts.sil.org/OFL";
},
{
name = vendorID;
value = GOOG;
},
{
name = unicodeRanges;
value = (
0,
1,
31,
45,
84
);
},
{
name = trademark;
value = "Noto is a trademark of Google Inc.";
},
{
name = "Has WWS Names";
value = 1;
},
{
name = versionString;
value = "Version 1.900";
},
{
name = fsType;
value = (
);
},
{
name = codePageRanges;
value = (
"1252"
);
}
);
date = "2017-05-04 14:41:23 +0000";
designer = "Monotype Design Team";
designerURL = "http://www.monotype.com/studio";
disablesAutomaticAlignment = 1;
disablesNiceNames = 1;
familyName = "Noto Sans Tagbanwa";
fontMaster = (
{
alignmentZones = (
"{1069, 15}",
"{714, 15}",
"{536, 15}",
"{0, -15}",
"{-293, -15}"
);
ascender = 1069;
capHeight = 714;
customParameters = (
{
name = typoAscender;
value = 1069;
},
{
name = typoDescender;
value = -293;
},
{
name = typoLineGap;
value = 0;
},
{
name = winAscent;
value = 1069;
},
{
name = winDescent;
value = 293;
},
{
name = hheaAscender;
value = 1069;
},
{
name = hheaDescender;
value = -293;
},
{
name = hheaLineGap;
value = 0;
},
{
name = underlinePosition;
value = -100;
},
{
name = underlineThickness;
value = 50;
},
{

glyphs = (
{
glyphname = .notdef;
lastChange = "2017-09-13 21:39:55 +0000";
layers = (
{
layerId = UUID0;
paths = (
{
closed = 1;
nodes = (
"505 0 LINE",
"505 714 LINE",
"94 714 LINE",
"94 0 LINE"
);
},
{
closed = 1;
nodes = (
"145 663 LINE",
"454 663 LINE",
"454 51 LINE",
"145 51 LINE"
);
}
);
width = 600;
}
);
},
{
glyphname = uni1735;
lastChange = "2017-09-13 21:39:55 +0000";
layers = (
{
layerId = UUID0;
paths = (
{
closed = 1;
nodes = (
"87 -139 LINE",
"292 750 LINE",
"222 750 LINE",
"18 -139 LINE"
);
}
);
width = 329;
}
);
unicode = 1735;
},
{
glyphname = uni1736;
lastChange = "2017-09-13 21:39:55 +0000";
layers = (
{
layerId = UUID0;
paths = (
{
closed = 1;
nodes = (
"246 -139 LINE",
"451 750 LINE",
"381 750 LINE",
"177 -139 LINE"
);
},
{
closed = 1;
nodes = (
"87 -139 LINE",
"292 750 LINE",
"222 750 LINE",
"18 -139 LINE"
);
}
);
width = 488;
}
);
unicode = 1736;
},
{
glyphname = uni1760;
lastChange = "2017-09-13 21:39:55 +0000";
layers = (
{
layerId = UUID0;
paths = (
{
closed = 1;
nodes = (
"203 -51 LINE",
"189 -50 OFFCURVE",
"165 -45 OFFCURVE",
"165 -28 CURVE SMOOTH",
"165 -8 OFFCURVE",
"184 6 OFFCURVE",
"203 17 CURVE",
"220 5 OFFCURVE",
"241 0 OFFCURVE",
"264 0 CURVE SMOOTH",
"369 0 OFFCURVE",
"459 149 OFFCURVE",
"543 277 CURVE SMOOTH",
"654 447 OFFCURVE",
"698 566 OFFCURVE",
"736 566 CURVE SMOOTH",
"752 566 OFFCURVE",
"756 555 OFFCURVE",
"756 534 CURVE",
"824 534 LINE",
"824 600 OFFCURVE",
"794 634 OFFCURVE",
"738 634 CURVE SMOOTH",
"645 634 OFFCURVE",
"621 520 OFFCURVE",
"482 314 CURVE SMOOTH",
"408 204 OFFCURVE",
"326 71 OFFCURVE",
"264 71 CURVE SMOOTH",
"253 71 OFFCURVE",
"245 79 OFFCURVE",
"245 100 CURVE SMOOTH",
"245 124 OFFCURVE",
"259 181 OFFCURVE",
"273 229 CURVE SMOOTH",
"286 272 OFFCURVE",
"301 324 OFFCURVE",
"301 358 CURVE SMOOTH",
"301 390 OFFCURVE",
"284 415 OFFCURVE",
"231 415 CURVE SMOOTH",
"157 415 OFFCURVE",
"79 379 OFFCURVE",
"23 339 CURVE",
"60 285 LINE",
"113 314 OFFCURVE",
"165 344 OFFCURVE",
"207 344 CURVE SMOOTH",
"220 344 OFFCURVE",
"222 339 OFFCURVE",
"222 331 CURVE SMOOTH",
"222 322 OFFCURVE",
"211 284 OFFCURVE",
"201 247 CURVE SMOOTH",
"187 194 OFFCURVE",
"169 137 OFFCURVE",
"169 90 CURVE SMOOTH",
"169 84 OFFCURVE",
"169 79 OFFCURVE",
"170 74 CURVE",
"131 53 OFFCURVE",
"93 24 OFFCURVE",
"93 -26 CURVE SMOOTH",
"93 -94 OFFCURVE",
"158 -112 OFFCURVE",
"187 -118 CURVE"
);
}
);
width = 805;
}
);
unicode = 1760;
},
{
glyphname = uni1761;
lastChange = "2017-09-13 21:39:55 +0000";
layers = (
{
layerId = UUID0;
paths = (
{
closed = 1;
nodes = (
"400 0 OFFCURVE",
"487 99 OFFCURVE",
"590 264 CURVE SMOOTH",
"677 404 OFFCURVE",
"743 492 OFFCURVE",
"831 492 CURVE SMOOTH",
"843 492 OFFCURVE",
"858 491 OFFCURVE",
"877 487 CURVE",
"889 554 LINE",
"853 560 OFFCURVE",
"844 560 OFFCURVE",
"827 560 CURVE SMOOTH",
"730 560 OFFCURVE",
"643 495 OFFCURVE",
"553 343 CURVE SMOOTH",
"451 170 OFFCURVE",
"376 71 OFFCURVE",
"276 71 CURVE SMOOTH",
"253 71 OFFCURVE",
"245 85 OFFCURVE",
"245 110 CURVE SMOOTH",
"245 144 OFFCURVE",
"285 269 OFFCURVE",
"302 325 CURVE SMOOTH",
"315 368 OFFCURVE",
"331 421 OFFCURVE",
"331 455 CURVE SMOOTH",
"331 487 OFFCURVE",
"314 512 OFFCURVE",
"261 512 CURVE SMOOTH",
"187 512 OFFCURVE",
"109 476 OFFCURVE",
"53 436 CURVE",
"91 382 LINE",
"144 411 OFFCURVE",
"194 443 OFFCURVE",
"236 443 CURVE SMOOTH",
"249 443 OFFCURVE",
"251 438 OFFCURVE",
"251 430 CURVE SMOOTH",
"251 421 OFFCURVE",
"238 379 OFFCURVE",
"228 342 CURVE SMOOTH",
"211 281 OFFCURVE",
"167 168 OFFCURVE",
"167 90 CURVE SMOOTH",
"167 30 OFFCURVE",
"212 0 OFFCURVE",
"264 0 CURVE SMOOTH"
);
},
{
closed = 1;
nodes = (
"677 624 OFFCURVE",
"744 643 OFFCURVE",
"800 650 CURVE",
"792 718 LINE",
"719 712 OFFCURVE",
"634 687 OFFCURVE",
"580 640 CURVE",
"623 583 LINE"
);
}
);
width = 918;
}
);
unicode = 1761;
},
{
glyphname = uni1762;
lastChange = "2017-09-13 21:39:55 +0000";
layers = (
{
layerId = UUID0;
paths = (
{
closed = 1;
nodes = (
"260 27 LINE SMOOTH",
"281 47 OFFCURVE",
"294 70 OFFCURVE",
"294 94 CURVE SMOOTH",
"294 127 OFFCURVE",
"273 148 OFFCURVE",
"240 165 CURVE SMOOTH",
"177 197 LINE SMOOTH",
"170 201 OFFCURVE",
"166 204 OFFCURVE",
"166 210 CURVE SMOOTH",
"166 219 OFFCURVE",
"186 226 OFFCURVE",
"204 235 CURVE SMOOTH",
"265 265 LINE SMOOTH",
"304 284 OFFCURVE",
"312 310 OFFCURVE",
"312 328 CURVE SMOOTH",
"312 358 OFFCURVE",
"291 372 OFFCURVE",
"275 383 CURVE SMOOTH",
"196 435 LINE SMOOTH",
"188 440 OFFCURVE",
"173 448 OFFCURVE",
"173 454 CURVE SMOOTH",
"173 460 OFFCURVE",
"177 462 OFFCURVE",
"184 466 CURVE SMOOTH",
"275 515 LINE SMOOTH",
"297 527 OFFCURVE",
"310 548 OFFCURVE",
"310 576 CURVE SMOOTH",
"310 605 OFFCURVE",
"286 625 OFFCURVE",
"267 634 CURVE SMOOTH",
"221 657 OFFCURVE",
"172 674 OFFCURVE",
"106 692 CURVE",
"80 627 LINE",
"124 611 OFFCURVE",
"173 598 OFFCURVE",
"206 583 CURVE SMOOTH",
"211 581 OFFCURVE",
"219 577 OFFCURVE",
"219 571 CURVE SMOOTH",
"219 564 OFFCURVE",
"210 559 OFFCURVE",
"204 555 CURVE SMOOTH",
"125 511 LINE SMOOTH",
"106 500 OFFCURVE",
"87 482 OFFCURVE",
"87 453 CURVE SMOOTH",
"87 432 OFFCURVE",
"97 414 OFFCURVE",
"115 403 CURVE SMOOTH",
"196 351 LINE SMOOTH",
"202 347 OFFCURVE",
"221 336 OFFCURVE",
"221 328 CURVE SMOOTH",
"221 321 OFFCURVE",
"215 317 OFFCURVE",
"208 314 CURVE SMOOTH",
"132 277 LINE SMOOTH",
"106 264 OFFCURVE",
"81 242 OFFCURVE",
"81 207 CURVE SMOOTH",
"81 190 OFFCURVE",
"86 165 OFFCURVE",
"127 144 CURVE SMOOTH",
"188 112 LINE SMOOTH",
"197 107 OFFCURVE",
"212 98 OFFCURVE",
"212 88 CURVE SMOOTH",
"212 78 OFFCURVE",
"199 67 OFFCURVE",
"192 60 CURVE SMOOTH",
"112 -10 LINE",
"165 -60 LINE"
);
}
);
width = 392;
}
);
unicode = 1762;
},
{
glyphname = uni1763;
lastChange = "2017-09-13 21:39:55 +0000";
layers = (
{
layerId = UUID0;
paths = (
{
closed = 1;
nodes = (
"144 117 OFFCURVE",
"199 217 OFFCURVE",
"266 307 CURVE",
"357 226 OFFCURVE",
"458 158 OFFCURVE",
"576 105 CURVE",
"604 169 LINE",
"496 219 OFFCURVE",
"399 283 OFFCURVE",
"310 362 CURVE",
"377 442 OFFCURVE",
"452 514 OFFCURVE",
"531 579 CURVE",
"477 636 LINE",
"396 568 OFFCURVE",
"321 494 OFFCURVE",
"255 414 CURVE",
"195 473 OFFCURVE",
"140 539 OFFCURVE",
"87 613 CURVE",
"29 569 LINE",
"86 493 OFFCURVE",
"146 422 OFFCURVE",
"211 358 CURVE",
"136 258 OFFCURVE",
"75 151 OFFCURVE",
"33 36 CURVE",
"107 8 LINE"
);
}
);
width = 629;
}
);
unicode = 1763;
},
{
glyphname = uni1764;
lastChange = "2017-09-13 21:39:55 +0000";
layers = (
{
layerId = UUID0;
paths = (
{
closed = 1;
nodes = (
"420 1 LINE",
"410 33 LINE SMOOTH",
"407 42 OFFCURVE",
"401 58 OFFCURVE",
"401 66 CURVE SMOOTH",
"401 75 OFFCURVE",
"405 82 OFFCURVE",
"418 90 CURVE SMOOTH",
"455 114 LINE SMOOTH",
"492 138 OFFCURVE",
"494 161 OFFCURVE",
"494 180 CURVE SMOOTH",
"494 203 OFFCURVE",
"477 220 OFFCURVE",
"461 231 CURVE SMOOTH",
"424 256 LINE SMOOTH",
"416 261 OFFCURVE",
"407 267 OFFCURVE",
"407 274 CURVE SMOOTH",
"407 280 OFFCURVE",
"411 286 OFFCURVE",
"418 292 CURVE SMOOTH",
"470 335 LINE SMOOTH",
"488 350 OFFCURVE",
"493 367 OFFCURVE",
"493 386 CURVE SMOOTH",
"493 413 OFFCURVE",
"476 430 OFFCURVE",
"460 440 CURVE SMOOTH",
"429 460 LINE SMOOTH",
"421 465 OFFCURVE",
"404 474 OFFCURVE",
"404 483 CURVE SMOOTH",
"404 491 OFFCURVE",
"410 498 OFFCURVE",
"416 504 CURVE SMOOTH",
"450 536 LINE SMOOTH",
"467 552 OFFCURVE",
"468 563 OFFCURVE",
"468 572 CURVE SMOOTH",
"468 579 OFFCURVE",
"465 592 OFFCURVE",
"454 602 CURVE",
"541 591 OFFCURVE",
"622 556 OFFCURVE",
"702 496 CURVE",
"747 552 LINE",
"640 634 OFFCURVE",
"519 674 OFFCURVE",
"400 674 CURVE SMOOTH",
"278 674 OFFCURVE",
"157 634 OFFCURVE",
"50 552 CURVE",
"95 496 LINE",
"177 557 OFFCURVE",
"271 597 OFFCURVE",
"373 604 CURVE",
"377 600 OFFCURVE",
"386 589 OFFCURVE",
"386 580 CURVE SMOOTH",
"386 574 OFFCURVE",
"382 565 OFFCURVE",
"371 555 CURVE SMOOTH",
"342 527 LINE SMOOTH",
"331 516 OFFCURVE",
"322 497 OFFCURVE",
"322 479 CURVE SMOOTH",
"322 458 OFFCURVE",
"331 440 OFFCURVE",
"354 426 CURVE SMOOTH",
"384 408 LINE SMOOTH",
"389 405 OFFCURVE",
"409 393 OFFCURVE",
"409 384 CURVE SMOOTH",
"409 378 OFFCURVE",
"408 373 OFFCURVE",
"399 366 CURVE SMOOTH",
"357 330 LINE SMOOTH",
"341 317 OFFCURVE",
"322 293 OFFCURVE",
"322 268 CURVE SMOOTH",
"322 239 OFFCURVE",
"340 224 OFFCURVE",
"356 214 CURVE SMOOTH",
"386 196 LINE SMOOTH",
"398 189 OFFCURVE",
"408 180 OFFCURVE",
"408 172 CURVE SMOOTH",
"408 167 OFFCURVE",
"405 162 OFFCURVE",
"396 156 CURVE SMOOTH",
"359 133 LINE SMOOTH",
"344 123 OFFCURVE",
"327 107 OFFCURVE",
"327 82 CURVE SMOOTH",
"327 61 OFFCURVE",
"333 39 OFFCURVE",
"339 19 CURVE SMOOTH",
"344 1 LINE"
);
}
);
width = 797;
}
);
unicode = 1764;
},
{
glyphname = uni1765;
lastChange = "2017-09-13 21:39:55 +0000";
layers = (
{
layerId = UUID0;
paths = (
{
closed = 1;
nodes = (
"284 256 LINE",
"491 256 LINE SMOOTH",
"567 256 OFFCURVE",
"617 289 OFFCURVE",
"659 318 CURVE SMOOTH",
"689 339 OFFCURVE",
"716 359 OFFCURVE",
"747 359 CURVE SMOOTH",
"791 359 OFFCURVE",
"821 333 OFFCURVE",
"821 289 CURVE SMOOTH",
"821 250 OFFCURVE",
"805 210 OFFCURVE",
"747 179 CURVE",
"788 124 LINE",
"860 166 OFFCURVE",
"893 222 OFFCURVE",
"893 285 CURVE SMOOTH",
"893 368 OFFCURVE",
"841 427 OFFCURVE",
"752 427 CURVE SMOOTH",
"704 427 OFFCURVE",
"663 405 OFFCURVE",
"624 378 CURVE SMOOTH",
"589 354 OFFCURVE",
"551 324 OFFCURVE",
"495 324 CURVE SMOOTH",
"288 324 LINE",
"100 507 LINE",
"51 456 LINE",
"220 292 LINE",
"51 128 LINE",
"100 77 LINE"
);
}
);
width = 945;
}
);
unicode = 1765;
},
{
glyphname = uni1766;
lastChange = "2017-09-13 21:39:55 +0000";
layers = (
{
layerId = UUID0;
paths = (
{
closed = 1;
nodes = (
"252 0 LINE SMOOTH",
"283 22 OFFCURVE",
"294 48 OFFCURVE",
"294 71 CURVE SMOOTH",
"294 103 OFFCURVE",
"275 128 OFFCURVE",
"233 141 CURVE SMOOTH",
"177 159 LINE SMOOTH",
"170 161 OFFCURVE",
"166 165 OFFCURVE",
"166 170 CURVE SMOOTH",
"166 178 OFFCURVE",
"185 186 OFFCURVE",
"204 192 CURVE SMOOTH",
"267 212 LINE SMOOTH",
"308 225 OFFCURVE",
"312 255 OFFCURVE",
"312 271 CURVE SMOOTH",
"312 275 OFFCURVE",
"311 279 OFFCURVE",
"311 282 CURVE",
"455 317 OFFCURVE",
"662 342 OFFCURVE",
"787 342 CURVE SMOOTH",
"859 342 OFFCURVE",
"893 318 OFFCURVE",
"893 285 CURVE SMOOTH",
"893 238 OFFCURVE",
"836 207 OFFCURVE",
"736 199 CURVE",
"742 131 LINE",
"879 142 OFFCURVE",
"965 202 OFFCURVE",
"965 288 CURVE SMOOTH",
"965 359 OFFCURVE",
"901 414 OFFCURVE",
"784 414 CURVE SMOOTH",
"651 414 OFFCURVE",
"396 380 OFFCURVE",
"246 340 CURVE",
"196 366 LINE SMOOTH",
"188 370 OFFCURVE",
"173 377 OFFCURVE",
"173 382 CURVE SMOOTH",
"173 387 OFFCURVE",
"177 389 OFFCURVE",
"184 392 CURVE SMOOTH",
"267 426 LINE SMOOTH",
"299 439 OFFCURVE",
"310 461 OFFCURVE",
"310 485 CURVE SMOOTH",
"310 513 OFFCURVE",
"288 536 OFFCURVE",
"257 546 CURVE SMOOTH",
"191 568 LINE SMOOTH",
"180 572 OFFCURVE",
"170 578 OFFCURVE",
"170 586 CURVE SMOOTH",
"170 595 OFFCURVE",
"176 601 OFFCURVE",
"189 609 CURVE SMOOTH",
"261 657 LINE",
"212 717 LINE",
"124 653 LINE SMOOTH",
"94 631 OFFCURVE",
"83 607 OFFCURVE",
"83 584 CURVE SMOOTH",
"83 552 OFFCURVE",
"102 527 OFFCURVE",
"146 513 CURVE SMOOTH",
"200 496 LINE SMOOTH",
"205 494 OFFCURVE",
"219 489 OFFCURVE",
"219 483 CURVE SMOOTH",
"219 477 OFFCURVE",
"208 471 OFFCURVE",
"204 469 CURVE SMOOTH",
"134 440 LINE SMOOTH",
"103 427 OFFCURVE",
"87 408 OFFCURVE",
"87 382 CURVE SMOOTH",
"87 362 OFFCURVE",
"97 343 OFFCURVE",
"126 328 CURVE SMOOTH",
"196 293 LINE SMOOTH",
"208 287 OFFCURVE",
"221 280 OFFCURVE",
"221 274 CURVE SMOOTH",
"221 268 OFFCURVE",
"215 264 OFFCURVE",
"208 262 CURVE SMOOTH",
"140 239 LINE SMOOTH",
"104 227 OFFCURVE",
"81 202 OFFCURVE",
"81 169 CURVE SMOOTH",
"81 152 OFFCURVE",
"83 121 OFFCURVE",
"134 104 CURVE SMOOTH",
"186 87 LINE SMOOTH",
"198 83 OFFCURVE",
"207 76 OFFCURVE",
"207 70 CURVE SMOOTH",
"207 61 OFFCURVE",
"196 51 OFFCURVE",
"188 46 CURVE SMOOTH",
"108 -6 LINE",
"158 -66 LINE"
);
}
);
width = 1015;
}
);
unicode = 1766;
},
{
glyphname = uni1767;
lastChange = "2017-09-13 21:39:55 +0000";
layers = (
{
layerId = UUID0;
paths = (
{
closed = 1;
nodes = (
"369 0 OFFCURVE",
"431 62 OFFCURVE",
"515 199 CURVE SMOOTH",
"606 348 OFFCURVE",
"661 427 OFFCURVE",
"756 427 CURVE SMOOTH",
"768 427 OFFCURVE",
"781 426 OFFCURVE",
"800 422 CURVE",
"802 491 LINE",
"785 493 OFFCURVE",
"769 495 OFFCURVE",
"752 495 CURVE SMOOTH",
"655 495 OFFCURVE",
"568 430 OFFCURVE",
"478 278 CURVE SMOOTH",
"369 94 OFFCURVE",
"325 72 OFFCURVE",
"280 72 CURVE SMOOTH",
"257 72 OFFCURVE",
"249 86 OFFCURVE",
"249 111 CURVE SMOOTH",
"249 166 OFFCURVE",
"299 317 OFFCURVE",
"309 362 CURVE",
"407 514 OFFCURVE",
"541 628 OFFCURVE",
"712 657 CURVE",
"712 726 LINE",
"516 695 OFFCURVE",
"383 584 OFFCURVE",
"293 458 CURVE",
"282 465 OFFCURVE",
"267 469 OFFCURVE",
"246 469 CURVE SMOOTH",
"172 469 OFFCURVE",
"92 436 OFFCURVE",
"36 396 CURVE",
"74 343 LINE",
"127 372 OFFCURVE",
"178 401 OFFCURVE",
"220 401 CURVE SMOOTH",
"233 401 OFFCURVE",
"235 396 OFFCURVE",
"235 388 CURVE SMOOTH",
"235 379 OFFCURVE",
"222 334 OFFCURVE",
"212 297 CURVE SMOOTH",
"195 236 OFFCURVE",
"172 153 OFFCURVE",
"172 93 CURVE SMOOTH",
"172 33 OFFCURVE",
"216 0 OFFCURVE",
"268 0 CURVE SMOOTH"
);
}
);
width = 805;
}
);
unicode = 1767;
},
{
glyphname = uni1768;
lastChange = "2017-09-13 21:39:55 +0000";
layers = (
{
layerId = UUID0;
paths = (
{
closed = 1;
nodes = (
"436 0 LINE",
"436 564 LINE",
"527 556 OFFCURVE",
"618 519 OFFCURVE",
"702 456 CURVE",
"747 512 LINE",
"640 594 OFFCURVE",
"519 634 OFFCURVE",
"400 634 CURVE SMOOTH",
"278 634 OFFCURVE",
"157 594 OFFCURVE",
"50 512 CURVE",
"95 456 LINE",
"177 517 OFFCURVE",
"267 555 OFFCURVE",
"359 564 CURVE",
"359 0 LINE"
);
}
);
width = 797;
}
);
unicode = 1768;
},
{
glyphname = uni1769;
lastChange = "2017-09-13 21:39:55 +0000";
layers = (
{
layerId = UUID0;
paths = (
{
closed = 1;
nodes = (
"383 0 OFFCURVE",
"456 84 OFFCURVE",
"554 308 CURVE",
"742 135 LINE",
"791 188 LINE",
"586 376 LINE",
"654 509 OFFCURVE",
"711 552 OFFCURVE",
"827 552 CURVE SMOOTH",
"839 552 OFFCURVE",
"854 551 OFFCURVE",
"873 547 CURVE",
"885 614 LINE",
"849 620 OFFCURVE",
"840 620 OFFCURVE",
"823 620 CURVE SMOOTH",
"683 620 OFFCURVE",
"586 557 OFFCURVE",
"503 370 CURVE SMOOTH",
"425 195 OFFCURVE",
"361 68 OFFCURVE",
"291 68 CURVE SMOOTH",
"268 68 OFFCURVE",
"251 88 OFFCURVE",
"251 113 CURVE SMOOTH",
"251 172 OFFCURVE",
"288 274 OFFCURVE",
"305 330 CURVE SMOOTH",
"318 373 OFFCURVE",
"333 425 OFFCURVE",
"333 459 CURVE SMOOTH",
"333 491 OFFCURVE",
"316 516 OFFCURVE",
"263 516 CURVE SMOOTH",
"189 516 OFFCURVE",
"108 484 OFFCURVE",
"52 444 CURVE",
"91 390 LINE",
"144 419 OFFCURVE",
"195 448 OFFCURVE",
"237 448 CURVE SMOOTH",
"250 448 OFFCURVE",
"252 443 OFFCURVE",
"252 435 CURVE SMOOTH",
"252 426 OFFCURVE",
"241 381 OFFCURVE",
"230 345 CURVE SMOOTH",
"219 308 OFFCURVE",
"174 182 OFFCURVE",
"174 105 CURVE SMOOTH",
"174 45 OFFCURVE",
"218 0 OFFCURVE",
"288 0 CURVE SMOOTH"
);
}
);
width = 918;
}
);
unicode = 1769;
},
{
glyphname = uni176A;
lastChange = "2017-09-13 21:39:55 +0000";
layers = (
{
layerId = UUID0;
paths = (
{
closed = 1;
nodes = (
"624 -1 OFFCURVE",
"803 177 OFFCURVE",
"803 343 CURVE SMOOTH",
"803 502 OFFCURVE",
"651 602 OFFCURVE",
"475 602 CURVE SMOOTH",
"222 602 OFFCURVE",
"50 439 OFFCURVE",
"50 261 CURVE SMOOTH",
"50 91 OFFCURVE",
"217 -1 OFFCURVE",
"374 -1 CURVE SMOOTH"
);
},
{
closed = 1;
nodes = (
"254 67 OFFCURVE",
"127 134 OFFCURVE",
"127 261 CURVE SMOOTH",
"127 410 OFFCURVE",
"275 534 OFFCURVE",
"475 534 CURVE SMOOTH",
"614 534 OFFCURVE",
"726 462 OFFCURVE",
"726 342 CURVE SMOOTH",
"726 210 OFFCURVE",
"582 67 OFFCURVE",
"374 67 CURVE SMOOTH"
);
}
);
width = 853;
}
);
unicode = 176A;
},
{
glyphname = uni176B;
lastChange = "2017-09-13 21:39:55 +0000";
layers = (
{
layerId = UUID0;
paths = (
{
closed = 1;
nodes = (
"391 0 OFFCURVE",
"490 84 OFFCURVE",
"598 277 CURVE SMOOTH",
"687 436 OFFCURVE",
"744 529 OFFCURVE",
"840 529 CURVE SMOOTH",
"851 529 OFFCURVE",
"865 528 OFFCURVE",
"884 524 CURVE",
"895 591 LINE",
"861 597 OFFCURVE",
"852 597 OFFCURVE",
"836 597 CURVE SMOOTH",
"748 597 OFFCURVE",
"674 538 OFFCURVE",
"594 412 CURVE",
"523 447 OFFCURVE",
"448 457 OFFCURVE",
"368 457 CURVE SMOOTH",
"339 457 LINE",
"341 471 OFFCURVE",
"343 483 OFFCURVE",
"343 494 CURVE SMOOTH",
"343 526 OFFCURVE",
"326 551 OFFCURVE",
"273 551 CURVE SMOOTH",
"199 551 OFFCURVE",
"119 519 OFFCURVE",
"63 479 CURVE",
"101 425 LINE",
"154 454 OFFCURVE",
"203 483 OFFCURVE",
"245 483 CURVE SMOOTH",
"258 483 OFFCURVE",
"260 478 OFFCURVE",
"260 470 CURVE SMOOTH",
"260 452 OFFCURVE",
"252 416 OFFCURVE",
"228 343 CURVE SMOOTH",
"200 259 OFFCURVE",
"175 182 OFFCURVE",
"175 105 CURVE SMOOTH",
"175 45 OFFCURVE",
"220 0 OFFCURVE",
"282 0 CURVE SMOOTH"
);
},
{
closed = 1;
nodes = (
"266 68 OFFCURVE",
"252 88 OFFCURVE",
"252 113 CURVE SMOOTH",
"252 156 OFFCURVE",
"262 191 OFFCURVE",
"322 388 CURVE",
"338 389 OFFCURVE",
"353 389 OFFCURVE",
"368 389 CURVE SMOOTH",
"437 389 OFFCURVE",
"503 380 OFFCURVE",
"559 353 CURVE",
"458 168 OFFCURVE",
"366 68 OFFCURVE",
"294 68 CURVE SMOOTH"
);
}
);
width = 918;
}
);
unicode = 176B;
},
{
glyphname = uni176C;
lastChange = "2017-09-13 21:39:55 +0000";
layers = (
{
layerId = UUID0;
paths = (
{
closed = 1;
nodes = (
"397 0 OFFCURVE",
"485 123 OFFCURVE",
"567 319 CURVE SMOOTH",
"638 488 OFFCURVE",
"704 566 OFFCURVE",
"789 566 CURVE SMOOTH",
"844 566 OFFCURVE",
"870 522 OFFCURVE",
"870 488 CURVE SMOOTH",
"870 433 OFFCURVE",
"824 378 OFFCURVE",
"732 378 CURVE",
"732 310 LINE",
"863 310 OFFCURVE",
"942 397 OFFCURVE",
"942 491 CURVE SMOOTH",
"942 553 OFFCURVE",
"901 634 OFFCURVE",
"785 634 CURVE SMOOTH",
"668 634 OFFCURVE",
"573 527 OFFCURVE",
"509 367 CURVE SMOOTH",
"439 193 OFFCURVE",
"360 68 OFFCURVE",
"292 68 CURVE SMOOTH",
"269 68 OFFCURVE",
"252 88 OFFCURVE",
"252 113 CURVE SMOOTH",
"252 172 OFFCURVE",
"298 309 OFFCURVE",
"308 341 CURVE SMOOTH",
"328 408 OFFCURVE",
"343 460 OFFCURVE",
"343 494 CURVE SMOOTH",
"343 526 OFFCURVE",
"326 551 OFFCURVE",
"273 551 CURVE SMOOTH",
"199 551 OFFCURVE",
"119 519 OFFCURVE",
"63 479 CURVE",
"101 425 LINE",
"154 454 OFFCURVE",
"203 483 OFFCURVE",
"245 483 CURVE SMOOTH",
"258 483 OFFCURVE",
"260 478 OFFCURVE",
"260 470 CURVE SMOOTH",
"260 452 OFFCURVE",
"252 416 OFFCURVE",
"228 343 CURVE SMOOTH",
"200 259 OFFCURVE",
"175 182 OFFCURVE",
"175 105 CURVE SMOOTH",
"175 45 OFFCURVE",
"219 0 OFFCURVE",
"289 0 CURVE SMOOTH"
);
}
);
width = 941;
}
);
unicode = 176C;
},
{
glyphname = uni176E;
lastChange = "2017-09-13 21:39:55 +0000";
layers = (
{
layerId = UUID0;
paths = (
{
closed = 1;
nodes = (
"386 0 OFFCURVE",
"460 89 OFFCURVE",
"560 322 CURVE",
"568 327 OFFCURVE",
"579 330 OFFCURVE",
"586 330 CURVE SMOOTH",
"600 330 OFFCURVE",
"600 319 OFFCURVE",
"600 312 CURVE SMOOTH",
"600 304 LINE SMOOTH",
"600 255 OFFCURVE",
"606 230 OFFCURVE",
"646 230 CURVE SMOOTH",
"664 230 OFFCURVE",
"672 235 OFFCURVE",
"679 235 CURVE SMOOTH",
"686 235 OFFCURVE",
"686 229 OFFCURVE",
"686 215 CURVE SMOOTH",
"686 199 LINE SMOOTH",
"686 164 OFFCURVE",
"703 137 OFFCURVE",
"737 137 CURVE SMOOTH",
"755 137 OFFCURVE",
"759 141 OFFCURVE",
"764 141 CURVE SMOOTH",
"772 141 OFFCURVE",
"773 136 OFFCURVE",
"773 128 CURVE SMOOTH",
"773 118 LINE SMOOTH",
"773 77 OFFCURVE",
"793 48 OFFCURVE",
"840 48 CURVE SMOOTH",
"875 48 LINE",
"875 109 LINE",
"851 109 LINE SMOOTH",
"837 109 OFFCURVE",
"832 116 OFFCURVE",
"832 129 CURVE SMOOTH",
"832 155 LINE SMOOTH",
"832 186 OFFCURVE",
"822 209 OFFCURVE",
"792 209 CURVE SMOOTH",
"776 209 OFFCURVE",
"764 203 OFFCURVE",
"755 203 CURVE SMOOTH",
"746 203 OFFCURVE",
"746 211 OFFCURVE",
"746 221 CURVE SMOOTH",
"746 249 LINE SMOOTH",
"746 291 OFFCURVE",
"722 300 OFFCURVE",
"705 300 CURVE SMOOTH",
"692 300 OFFCURVE",
"681 294 OFFCURVE",
"670 294 CURVE SMOOTH",
"659 294 OFFCURVE",
"659 303 OFFCURVE",
"659 314 CURVE SMOOTH",
"659 341 LINE SMOOTH",
"659 384 OFFCURVE",
"635 393 OFFCURVE",
"618 393 CURVE SMOOTH",
"609 393 OFFCURVE",
"598 390 OFFCURVE",
"589 387 CURVE",
"642 494 OFFCURVE",
"694 543 OFFCURVE",
"814 543 CURVE SMOOTH",
"838 543 OFFCURVE",
"876 538 OFFCURVE",
"898 532 CURVE",
"910 599 LINE",
"874 608 OFFCURVE",
"839 611 OFFCURVE",
"805 611 CURVE SMOOTH",
"644 611 OFFCURVE",
"573 531 OFFCURVE",
"502 370 CURVE SMOOTH",
"425 195 OFFCURVE",
"361 68 OFFCURVE",
"291 68 CURVE SMOOTH",
"268 68 OFFCURVE",
"251 88 OFFCURVE",
"251 113 CURVE SMOOTH",
"251 172 OFFCURVE",
"288 274 OFFCURVE",
"305 330 CURVE SMOOTH",
"318 373 OFFCURVE",
"333 425 OFFCURVE",
"333 459 CURVE SMOOTH",
"333 491 OFFCURVE",
"316 516 OFFCURVE",
"263 516 CURVE SMOOTH",
"189 516 OFFCURVE",
"109 483 OFFCURVE",
"53 443 CURVE",
"91 390 LINE",
"144 419 OFFCURVE",
"195 448 OFFCURVE",
"237 448 CURVE SMOOTH",
"250 448 OFFCURVE",
"252 443 OFFCURVE",
"252 435 CURVE SMOOTH",
"252 426 OFFCURVE",
"241 383 OFFCURVE",
"230 347 CURVE SMOOTH",
"219 310 OFFCURVE",
"174 182 OFFCURVE",
"174 105 CURVE SMOOTH",
"174 45 OFFCURVE",
"218 0 OFFCURVE",
"288 0 CURVE SMOOTH"
);
}
);
width = 938;
}
);
unicode = 176E;
},
{
glyphname = uni176F;
lastChange = "2017-09-13 21:39:55 +0000";
layers = (
{
layerId = UUID0;
paths = (
{
closed = 1;
nodes = (
"239 0 OFFCURVE",
"323 31 OFFCURVE",
"405 67 CURVE SMOOTH",
"487 103 OFFCURVE",
"581 139 OFFCURVE",
"640 139 CURVE SMOOTH",
"686 139 OFFCURVE",
"712 122 OFFCURVE",
"712 82 CURVE SMOOTH",
"712 56 OFFCURVE",
"702 29 OFFCURVE",
"691 0 CURVE",
"767 0 LINE",
"774 22 OFFCURVE",
"784 47 OFFCURVE",
"784 84 CURVE SMOOTH",
"784 149 OFFCURVE",
"739 207 OFFCURVE",
"634 207 CURVE SMOOTH",
"557 207 OFFCURVE",
"484 179 OFFCURVE",
"378 133 CURVE SMOOTH",
"303 100 OFFCURVE",
"222 71 OFFCURVE",
"182 71 CURVE SMOOTH",
"162 71 OFFCURVE",
"155 86 OFFCURVE",
"155 104 CURVE SMOOTH",
"155 255 OFFCURVE",
"370 566 OFFCURVE",
"592 566 CURVE SMOOTH",
"670 566 OFFCURVE",
"701 521 OFFCURVE",
"718 477 CURVE",
"782 503 LINE",
"756 569 OFFCURVE",
"705 634 OFFCURVE",
"581 634 CURVE SMOOTH",
"327 634 OFFCURVE",
"78 299 OFFCURVE",
"78 104 CURVE SMOOTH",
"78 46 OFFCURVE",
"108 0 OFFCURVE",
"182 0 CURVE SMOOTH"
);
}
);
width = 834;
}
);
unicode = 176F;
},
{
glyphname = uni1770;
lastChange = "2017-09-13 21:39:55 +0000";
layers = (
{
layerId = UUID0;
paths = (
{
closed = 1;
nodes = (
"398 0 OFFCURVE",
"470 118 OFFCURVE",
"551 297 CURVE SMOOTH",
"617 442 OFFCURVE",
"671 523 OFFCURVE",
"717 523 CURVE SMOOTH",
"730 523 OFFCURVE",
"737 516 OFFCURVE",
"737 505 CURVE SMOOTH",
"737 491 OFFCURVE",
"722 463 OFFCURVE",
"699 435 CURVE SMOOTH",
"637 358 OFFCURVE",
"609 296 OFFCURVE",
"609 252 CURVE SMOOTH",
"609 209 OFFCURVE",
"636 183 OFFCURVE",
"684 183 CURVE SMOOTH",
"718 183 OFFCURVE",
"749 197 OFFCURVE",
"806 232 CURVE SMOOTH",
"820 240 OFFCURVE",
"843 253 OFFCURVE",
"850 253 CURVE SMOOTH",
"855 253 OFFCURVE",
"857 251 OFFCURVE",
"857 247 CURVE SMOOTH",
"857 240 OFFCURVE",
"843 231 OFFCURVE",
"829 216 CURVE SMOOTH",
"794 179 OFFCURVE",
"783 156 OFFCURVE",
"783 131 CURVE SMOOTH",
"783 94 OFFCURVE",
"809 72 OFFCURVE",
"849 72 CURVE SMOOTH",
"863 72 OFFCURVE",
"882 76 OFFCURVE",
"899 83 CURVE SMOOTH",
"910 88 OFFCURVE",
"922 92 OFFCURVE",
"928 92 CURVE SMOOTH",
"933 92 OFFCURVE",
"933 89 OFFCURVE",
"933 88 CURVE SMOOTH",
"933 81 OFFCURVE",
"923 66 OFFCURVE",
"918 59 CURVE",
"983 28 LINE",
"994 45 OFFCURVE",
"1003 68 OFFCURVE",
"1003 89 CURVE SMOOTH",
"1003 132 OFFCURVE",
"979 154 OFFCURVE",
"933 154 CURVE SMOOTH",
"918 154 OFFCURVE",
"901 151 OFFCURVE",
"881 143 CURVE SMOOTH",
"874 140 OFFCURVE",
"862 135 OFFCURVE",
"857 135 CURVE SMOOTH",
"853 135 OFFCURVE",
"851 138 OFFCURVE",
"851 141 CURVE SMOOTH",
"851 149 OFFCURVE",
"862 160 OFFCURVE",
"889 189 CURVE SMOOTH",
"911 212 OFFCURVE",
"926 235 OFFCURVE",
"926 262 CURVE SMOOTH",
"926 296 OFFCURVE",
"903 319 OFFCURVE",
"861 319 CURVE SMOOTH",
"840 319 OFFCURVE",
"815 311 OFFCURVE",
"790 296 CURVE SMOOTH",
"742 266 OFFCURVE",
"701 252 OFFCURVE",
"691 252 CURVE SMOOTH",
"684 252 OFFCURVE",
"680 255 OFFCURVE",
"680 263 CURVE SMOOTH",
"680 286 OFFCURVE",
"705 328 OFFCURVE",
"755 391 CURVE SMOOTH",
"789 433 OFFCURVE",
"808 476 OFFCURVE",
"808 512 CURVE SMOOTH",
"808 556 OFFCURVE",
"775 591 OFFCURVE",
"723 591 CURVE SMOOTH",
"629 591 OFFCURVE",
"564 494 OFFCURVE",
"505 366 CURVE SMOOTH",
"424 191 OFFCURVE",
"363 68 OFFCURVE",
"293 68 CURVE SMOOTH",
"270 68 OFFCURVE",
"253 88 OFFCURVE",
"253 113 CURVE SMOOTH",
"253 172 OFFCURVE",
"299 309 OFFCURVE",
"309 341 CURVE SMOOTH",
"329 408 OFFCURVE",
"344 460 OFFCURVE",
"344 494 CURVE SMOOTH",
"344 526 OFFCURVE",
"327 551 OFFCURVE",
"274 551 CURVE SMOOTH",
"200 551 OFFCURVE",
"121 519 OFFCURVE",
"65 479 CURVE",
"102 425 LINE",
"155 454 OFFCURVE",
"203 479 OFFCURVE",
"245 479 CURVE SMOOTH",
"258 479 OFFCURVE",
"260 474 OFFCURVE",
"260 466 CURVE SMOOTH",
"260 448 OFFCURVE",
"252 412 OFFCURVE",
"228 339 CURVE SMOOTH",
"200 255 OFFCURVE",
"176 182 OFFCURVE",
"176 105 CURVE SMOOTH",
"176 45 OFFCURVE",
"220 0 OFFCURVE",
"290 0 CURVE SMOOTH"
);
}
);
width = 1053;
}
);
unicode = 1770;
},
{
glyphname = uni1772;
lastChange = "2017-09-13 21:39:55 +0000";
layers = (
{
layerId = UUID0;
paths = (
{
closed = 1;
nodes = (
"-149 624 LINE SMOOTH",
"-99 642 OFFCURVE",
"-78 670 OFFCURVE",
"-78 712 CURVE SMOOTH",
"-78 749 OFFCURVE",
"-96 782 OFFCURVE",
"-149 800 CURVE SMOOTH",
"-192 815 LINE",
"-217 751 LINE",
"-171 735 LINE SMOOTH",
"-158 730 OFFCURVE",
"-150 722 OFFCURVE",
"-150 711 CURVE SMOOTH",
"-150 698 OFFCURVE",
"-162 691 OFFCURVE",
"-172 688 CURVE SMOOTH",
"-227 669 LINE",
"-202 605 LINE"
);
}
);
width = 0;
}
);
unicode = 1772;
},
{
glyphname = uni1773;
lastChange = "2017-09-13 21:39:55 +0000";
layers = (
{
layerId = UUID0;
paths = (
{
closed = 1;
nodes = (
"-149 -142 LINE SMOOTH",
"-99 -124 OFFCURVE",
"-78 -94 OFFCURVE",
"-78 -50 CURVE SMOOTH",
"-78 -14 OFFCURVE",
"-96 15 OFFCURVE",
"-149 33 CURVE SMOOTH",
"-192 48 LINE",
"-217 -15 LINE",
"-171 -31 LINE SMOOTH",
"-158 -36 OFFCURVE",
"-150 -44 OFFCURVE",
"-150 -55 CURVE SMOOTH",
"-150 -68 OFFCURVE",
"-162 -75 OFFCURVE",
"-172 -78 CURVE SMOOTH",
"-227 -97 LINE",
"-202 -161 LINE"
);
}
);
width = 0;
}
);
unicode = 1773;
},
{
glyphname = uni25CC;
lastChange = "2017-09-13 21:39:55 +0000";
layers = (
{
layerId = UUID0;
paths = (
{
closed = 1;
nodes = (
"480 466 OFFCURVE",
"472 475 OFFCURVE",
"455 475 CURVE SMOOTH",
"437 475 OFFCURVE",
"428 466 OFFCURVE",
"428 448 CURVE SMOOTH",
"428 431 OFFCURVE",
"437 422 OFFCURVE",
"455 422 CURVE SMOOTH",
"472 422 OFFCURVE",
"480 431 OFFCURVE",
"480 448 CURVE SMOOTH"
);
},
{
closed = 1;
nodes = (
"408 514 OFFCURVE",
"400 523 OFFCURVE",
"383 523 CURVE SMOOTH",
"364 523 OFFCURVE",
"355 514 OFFCURVE",
"355 496 CURVE SMOOTH",
"355 479 OFFCURVE",
"364 470 OFFCURVE",
"383 470 CURVE SMOOTH",
"400 470 OFFCURVE",
"408 479 OFFCURVE",
"408 496 CURVE SMOOTH"
);
},
{
closed = 1;
nodes = (
"529 393 OFFCURVE",
"520 402 OFFCURVE",
"503 402 CURVE SMOOTH",
"485 402 OFFCURVE",
"476 393 OFFCURVE",
"476 376 CURVE SMOOTH",
"476 358 OFFCURVE",
"485 349 OFFCURVE",
"502 349 CURVE SMOOTH",
"520 349 OFFCURVE",
"529 358 OFFCURVE",
"529 376 CURVE SMOOTH"
);
},
{
closed = 1;
nodes = (
"546 308 OFFCURVE",
"538 317 OFFCURVE",
"521 317 CURVE SMOOTH",
"503 317 OFFCURVE",
"494 308 OFFCURVE",
"494 291 CURVE SMOOTH",
"494 274 OFFCURVE",
"503 265 OFFCURVE",
"521 265 CURVE SMOOTH",
"538 265 OFFCURVE",
"546 274 OFFCURVE",
"546 291 CURVE SMOOTH"
);
},
{
closed = 1;
nodes = (
"323 531 OFFCURVE",
"314 540 OFFCURVE",
"297 540 CURVE SMOOTH",
"280 540 OFFCURVE",
"271 531 OFFCURVE",
"271 514 CURVE SMOOTH",
"271 496 OFFCURVE",
"280 487 OFFCURVE",
"297 487 CURVE SMOOTH",
"314 487 OFFCURVE",
"323 496 OFFCURVE",
"323 514 CURVE SMOOTH"
);
},
{
closed = 1;
nodes = (
"239 514 OFFCURVE",
"230 523 OFFCURVE",
"212 523 CURVE SMOOTH",
"195 523 OFFCURVE",
"186 514 OFFCURVE",
"186 496 CURVE SMOOTH",
"186 479 OFFCURVE",
"195 470 OFFCURVE",
"212 470 CURVE SMOOTH",
"230 470 OFFCURVE",
"239 479 OFFCURVE",
"239 496 CURVE SMOOTH"
);
},
{
closed = 1;
nodes = (
"529 224 OFFCURVE",
"520 233 OFFCURVE",
"502 233 CURVE SMOOTH",
"485 233 OFFCURVE",
"476 224 OFFCURVE",
"476 206 CURVE SMOOTH",
"476 189 OFFCURVE",
"485 180 OFFCURVE",
"502 180 CURVE SMOOTH",
"520 180 OFFCURVE",
"529 189 OFFCURVE",
"529 206 CURVE SMOOTH"
);
},
{
closed = 1;
nodes = (
"167 466 OFFCURVE",
"158 475 OFFCURVE",
"140 475 CURVE SMOOTH",
"123 475 OFFCURVE",
"114 466 OFFCURVE",
"114 447 CURVE SMOOTH",
"114 430 OFFCURVE",
"123 422 OFFCURVE",
"140 422 CURVE SMOOTH",
"158 422 OFFCURVE",
"167 431 OFFCURVE",
"167 448 CURVE SMOOTH"
);
},
{
closed = 1;
nodes = (
"480 151 OFFCURVE",
"472 160 OFFCURVE",
"455 160 CURVE SMOOTH",
"437 160 OFFCURVE",
"428 151 OFFCURVE",
"428 133 CURVE SMOOTH",
"428 116 OFFCURVE",
"437 107 OFFCURVE",
"455 107 CURVE SMOOTH",
"472 107 OFFCURVE",
"480 116 OFFCURVE",
"480 133 CURVE SMOOTH"
);
},
{
closed = 1;
nodes = (
"408 103 OFFCURVE",
"400 112 OFFCURVE",
"383 112 CURVE SMOOTH",
"364 112 OFFCURVE",
"355 103 OFFCURVE",
"355 85 CURVE SMOOTH",
"355 68 OFFCURVE",
"364 60 OFFCURVE",
"383 60 CURVE SMOOTH",
"400 60 OFFCURVE",
"408 68 OFFCURVE",
"408 85 CURVE SMOOTH"
);
},
{
closed = 1;
nodes = (
"118 393 OFFCURVE",
"109 402 OFFCURVE",
"92 402 CURVE SMOOTH",
"74 402 OFFCURVE",
"65 393 OFFCURVE",
"65 376 CURVE SMOOTH",
"65 358 OFFCURVE",
"74 349 OFFCURVE",
"93 349 CURVE SMOOTH",
"110 349 OFFCURVE",
"118 358 OFFCURVE",
"118 376 CURVE SMOOTH"
);
},
{
closed = 1;
nodes = (
"101 308 OFFCURVE",
"92 317 OFFCURVE",
"75 317 CURVE SMOOTH",
"57 317 OFFCURVE",
"48 308 OFFCURVE",
"48 291 CURVE SMOOTH",
"48 274 OFFCURVE",
"57 265 OFFCURVE",
"75 265 CURVE SMOOTH",
"92 265 OFFCURVE",
"101 274 OFFCURVE",
"101 291 CURVE SMOOTH"
);
},
{
closed = 1;
nodes = (
"323 86 OFFCURVE",
"314 95 OFFCURVE",
"297 95 CURVE SMOOTH",
"280 95 OFFCURVE",
"271 86 OFFCURVE",
"271 69 CURVE SMOOTH",
"271 51 OFFCURVE",
"280 42 OFFCURVE",
"297 42 CURVE SMOOTH",
"314 42 OFFCURVE",
"323 51 OFFCURVE",
"323 69 CURVE SMOOTH"
);
},
{
closed = 1;
nodes = (
"118 224 OFFCURVE",
"109 233 OFFCURVE",
"92 233 CURVE SMOOTH",
"74 233 OFFCURVE",
"65 224 OFFCURVE",
"65 206 CURVE SMOOTH",
"65 189 OFFCURVE",
"74 180 OFFCURVE",
"92 180 CURVE SMOOTH",
"109 180 OFFCURVE",
"118 189 OFFCURVE",
"118 206 CURVE SMOOTH"
);
},
{
closed = 1;
nodes = (
"239 104 OFFCURVE",
"230 112 OFFCURVE",
"212 112 CURVE SMOOTH",
"195 112 OFFCURVE",
"186 103 OFFCURVE",
"186 85 CURVE SMOOTH",
"186 68 OFFCURVE",
"195 60 OFFCURVE",
"212 60 CURVE SMOOTH",
"230 60 OFFCURVE",
"239 69 OFFCURVE",
"239 87 CURVE SMOOTH"
);
},
{
closed = 1;
nodes = (
"167 151 OFFCURVE",
"158 160 OFFCURVE",
"140 160 CURVE SMOOTH",
"123 160 OFFCURVE",
"114 151 OFFCURVE",
"114 133 CURVE SMOOTH",
"114 116 OFFCURVE",
"123 107 OFFCURVE",
"140 107 CURVE SMOOTH",
"158 107 OFFCURVE",
"167 116 OFFCURVE",
"167 133 CURVE SMOOTH"
);
}
